<?xml version="1.0" encoding="UTF-8"?>
<svg id="_レイヤー_2" data-name="レイヤー 2" xmlns="http://www.w3.org/2000/svg" viewBox="0 0 775 801">
  <defs>
    <style>
      .cls-1 {
        fill: #1f2020;
      }

      .cls-2 {
        fill: #666;
        isolation: isolate;
      }
    </style>
  </defs>
  <g id="_レイヤー_1-2" data-name="レイヤー 1">
    <path class="cls-1" d="M692.75,182.81h0c-.17,0,4.52-24.2.5-66.36-3.69-42.19-12.5-80.91-26.95-116.45,0,0-7.38,1.36-21.44,4.91s-37.05,10.72-68.47,25.06c-30.97,14.37-63.61,33.5-97.59,56.7-23.11-6.61-57.59-9.98-103.8-9.98s-78.52,3.38-103.8,9.98C196.55,34.36,133.99,5.47,83.53,0c-14.39,35.55-23.31,74.48-26.78,116.8-4.02,42.19.67,66.53.67,66.53C16.73,227.84,0,292,0,344.97c0,40.97,1.17,78.03,10.22,110.94,9.38,32.67,21.25,59.38,35.31,79.91,14.55,20.76,32.42,38.98,52.91,53.92,20.92,15.75,40.17,27.09,57.59,34.2,17.58,7.44,37.5,12.86,60.27,16.75,16.87,3.26,33.92,5.53,51.06,6.78,0,0,46.88,2.53,107.81,2.53s107.64-2.53,107.64-2.53c17.14-1.29,34.19-3.58,51.06-6.84,20.59-3.32,40.75-8.94,60.09-16.75,17.42-7.28,36.67-18.45,57.81-34.2,20.47-14.92,38.3-33.17,52.73-53.98,14.06-20.48,25.94-47.23,35.31-79.91s10.17-70.02,10.17-110.98c0-51.28-16.73-116.28-57.25-161.98Z"/>
    <path class="cls-2" d="M763.26,592.34l-28.33-43.1c-11.56-17.59-17.85-38.33-18.06-59.6l-.18-17.73c-1-97.35-77.89-175.49-171.75-174.53-93.86.96-169.14,80.66-168.15,178.01l.18,17.73c.22,21.28-5.64,42.14-16.84,59.96l-27.44,43.67c-25.07,39.89-5.07,93.55,39.36,105.63,21.76,5.92,43.73,10.68,65.83,14.29-2.82-.46-5.65-.94-8.46-1.44,16.91,50.33,64.71,86.34,120.67,85.77,55.96-.57,103.01-37.56,118.89-88.22-2.77.55-5.54,1.07-8.31,1.59,21.98-4.06,43.81-9.27,65.41-15.61,44.18-12.99,63.07-67.05,37.19-106.41ZM647.83,726.33c-9.41,12.53-34.96,50.12-60.7,48.09-12.78-1.01,21.62-18.66,20.89-43.15-.06-1.97,1.45-3.63,3.41-3.81,7.55-.71,24.32-2.43,34.19-4.57,1.97-.43,3.42,1.83,2.21,3.44Z"/>
  </g>
</svg>